<svg xmlns="http://www.w3.org/2000/svg" viewBox="0 0 24 24" fill="none"><path d="M 24 12 C 24 18.627 18.627 24 12 24 C 5.373 24 0 18.627 0 12 C 0 5.373 5.373 0 12 0 C 18.627 0 24 5.373 24 12 Z M 5.456 13.734 L 8.642 13.734 C 8.737 13.734 8.807 13.823 8.784 13.915 L 7.137 20.596 C 7.102 20.738 7.275 20.837 7.38 20.736 L 18.482 10.051 C 18.577 9.96 18.512 9.8 18.381 9.8 L 14.484 9.8 C 14.363 9.8 14.295 9.661 14.368 9.565 L 18.018 4.832 C 18.092 4.736 18.023 4.597 17.902 4.597 L 10.433 4.597 L 5.329 13.516 C 5.274 13.613 5.344 13.734 5.456 13.734 Z" fill="currentColor" fill-rule="evenodd"/></svg>