<svg xmlns="http://www.w3.org/2000/svg" viewBox="0 0 24 24" fill="none"><path d="M 0 3.722 L 10.07 0 L 16.097 16.314 L 6.026 20.009 L 0 3.722 Z" fill="currentColor" fill-rule="nonzero" transform="matrix(1 0 0 1 -0.003 3.533) matrix(1 0 0 1 18.664 0.187) matrix(1 0 0 1 -5.366 -1.716)"/><path d="M 0 7.022 L 16.256 0 L 24.291 18.584 L 8.035 25.606 L 0 7.022 Z" fill="currentColor" fill-rule="nonzero" transform="matrix(1 0 0 1 -0.003 3.533) matrix(1 0 0 1 0 0.081) matrix(1 0 0 1 -6.234 -4.356)"/><path d="M 0 4.725 L 12.872 0 L 19.374 17.713 L 6.529 22.438 L 0 4.725 Z" fill="currentColor" fill-rule="nonzero" transform="matrix(1 0 0 1 -0.003 3.533) matrix(1 0 0 1 9.854 0) matrix(1 0 0 1 -5.595 -2.717)"/></svg>