<svg xmlns="http://www.w3.org/2000/svg" viewBox="0 0 24 24" fill="none"><path d="M 23.971 13.724 L 23.211 7.909 C 23.189 7.749 23.114 7.599 23.007 7.481 L 18.22 2.416 C 18.113 2.298 17.963 2.212 17.792 2.18 L 7.009 0.017 C 6.752 -0.037 6.495 0.038 6.302 0.21 L 0.252 5.714 C 0.037 5.907 -0.048 6.196 0.027 6.464 L 1.472 12.021 C 1.547 12.31 1.783 12.525 2.083 12.589 L 4.449 13.071 L 7.159 14.634 L 7.18 14.634 L 10.039 16.187 L 13.605 21.081 C 13.798 21.338 14.119 21.455 14.44 21.381 L 16.389 20.92 C 16.732 20.834 16.978 20.545 17 20.203 L 17.064 18.586 L 23.639 14.452 C 23.896 14.291 24.035 14.002 23.992 13.713 L 23.971 13.724 Z M 21.669 8.338 L 22.172 12.214 L 12.524 5.842 L 17.417 3.851 L 21.658 8.338 L 21.669 8.338 Z M 7.48 1.677 L 14.976 3.187 L 10.575 4.975 L 10.564 4.975 L 6.537 6.699 L 7.49 1.666 L 7.48 1.677 Z M 2.886 11.175 L 1.676 6.517 L 5.627 2.919 L 4.696 7.856 C 4.631 8.177 4.792 8.509 5.092 8.67 L 12.32 12.61 L 4.888 11.572 L 2.897 11.165 L 2.886 11.175 Z M 14.58 19.774 L 11.228 15.159 C 11.164 15.063 11.067 14.988 10.971 14.934 L 8.626 13.66 L 15.586 14.634 L 15.479 18.136 L 15.426 19.571 L 14.58 19.764 L 14.58 19.774 Z M 19.912 14.966 L 17.107 16.722 L 17.192 13.992 C 17.192 13.703 17.043 13.435 16.785 13.296 L 7.244 8.081 L 10.789 6.56 L 21.754 13.799 L 19.912 14.955 L 19.912 14.966 Z" fill="currentColor" fill-rule="evenodd" transform="matrix(1 0 0 1 -0.006 1.252)"/></svg>