<svg xmlns="http://www.w3.org/2000/svg" viewBox="0 0 24 24" fill="none"><path d="M 23.165 10.368 L 20.337 12.003 L 23.165 13.634 C 23.34 13.729 23.494 13.858 23.618 14.013 C 23.742 14.169 23.833 14.347 23.887 14.539 C 23.941 14.73 23.956 14.93 23.932 15.128 C 23.907 15.325 23.843 15.515 23.744 15.687 C 23.644 15.86 23.512 16.01 23.353 16.13 C 23.195 16.25 23.014 16.338 22.821 16.387 C 22.629 16.436 22.428 16.446 22.232 16.417 C 22.035 16.387 21.846 16.319 21.677 16.215 L 16.61 13.291 C 16.284 13.104 16.042 12.799 15.933 12.44 C 15.883 12.283 15.861 12.119 15.866 11.955 C 15.869 11.838 15.887 11.721 15.917 11.603 C 16.022 11.226 16.27 10.904 16.608 10.707 L 21.673 7.786 C 21.843 7.689 22.03 7.625 22.224 7.6 C 22.418 7.574 22.615 7.587 22.803 7.638 C 22.992 7.689 23.169 7.777 23.324 7.896 C 23.479 8.015 23.61 8.164 23.707 8.333 C 23.806 8.502 23.87 8.689 23.896 8.883 C 23.923 9.077 23.91 9.274 23.86 9.463 C 23.809 9.652 23.722 9.829 23.603 9.984 C 23.484 10.14 23.335 10.271 23.165 10.368 Z M 20.487 18.293 L 15.425 15.374 C 15.164 15.221 14.862 15.153 14.561 15.178 C 14.186 15.206 13.836 15.374 13.58 15.65 C 13.324 15.926 13.182 16.288 13.183 16.665 L 13.183 22.51 C 13.178 22.709 13.213 22.907 13.286 23.092 C 13.359 23.277 13.468 23.445 13.607 23.587 C 13.746 23.73 13.911 23.843 14.095 23.92 C 14.278 23.997 14.475 24.037 14.673 24.037 C 14.872 24.037 15.069 23.997 15.252 23.92 C 15.435 23.843 15.601 23.73 15.74 23.587 C 15.879 23.445 15.988 23.277 16.06 23.092 C 16.133 22.907 16.168 22.709 16.163 22.51 L 16.163 19.24 L 18.998 20.877 C 19.167 20.975 19.354 21.039 19.548 21.065 C 19.742 21.091 19.939 21.078 20.128 21.027 C 20.317 20.977 20.495 20.89 20.65 20.771 C 20.805 20.651 20.935 20.503 21.033 20.333 C 21.231 19.99 21.284 19.583 21.182 19.2 C 21.079 18.818 20.829 18.492 20.487 18.293 Z M 14.645 12.574 L 12.539 14.677 C 12.467 14.744 12.374 14.784 12.275 14.788 L 11.657 14.788 C 11.559 14.783 11.466 14.743 11.393 14.677 L 9.288 12.574 C 9.223 12.502 9.184 12.409 9.179 12.312 L 9.179 11.693 C 9.179 11.607 9.227 11.488 9.288 11.427 L 11.392 9.326 C 11.464 9.26 11.558 9.221 11.656 9.216 L 12.275 9.216 C 12.361 9.216 12.479 9.264 12.539 9.326 L 14.645 11.428 C 14.705 11.488 14.753 11.607 14.753 11.694 L 14.753 12.313 C 14.748 12.41 14.71 12.502 14.645 12.574 Z M 12.962 11.991 C 12.955 11.893 12.916 11.799 12.85 11.726 L 12.241 11.118 C 12.168 11.052 12.075 11.013 11.976 11.007 L 11.952 11.007 C 11.855 11.013 11.762 11.053 11.69 11.119 L 11.081 11.726 C 11.017 11.8 10.979 11.893 10.974 11.991 L 10.974 12.015 C 10.974 12.1 11.021 12.218 11.081 12.278 L 11.69 12.886 C 11.75 12.947 11.867 12.998 11.952 12.998 L 11.976 12.998 C 12.074 12.992 12.168 12.952 12.24 12.886 L 12.85 12.278 C 12.916 12.206 12.955 12.113 12.961 12.015 L 12.962 11.991 Z M 3.445 5.707 L 8.51 8.63 C 8.783 8.787 9.084 8.849 9.374 8.825 C 9.749 8.797 10.1 8.628 10.356 8.352 C 10.611 8.076 10.753 7.713 10.753 7.337 L 10.753 1.491 C 10.744 1.102 10.583 0.732 10.304 0.461 C 10.026 0.189 9.652 0.037 9.263 0.037 C 8.874 0.037 8.5 0.189 8.222 0.461 C 7.943 0.732 7.782 1.102 7.773 1.491 L 7.773 4.762 L 4.936 3.123 C 4.593 2.926 4.186 2.872 3.804 2.974 C 3.422 3.077 3.096 3.327 2.898 3.669 C 2.701 4.012 2.647 4.419 2.749 4.801 C 2.852 5.183 3.103 5.509 3.445 5.707 Z M 14.562 8.825 C 14.863 8.85 15.164 8.782 15.425 8.63 L 20.487 5.707 C 20.829 5.509 21.079 5.183 21.182 4.801 C 21.284 4.419 21.23 4.011 21.033 3.669 C 20.835 3.326 20.51 3.077 20.128 2.975 C 19.747 2.872 19.34 2.926 18.998 3.123 L 16.163 4.763 L 16.163 1.49 C 16.163 1.095 16.006 0.716 15.726 0.436 C 15.447 0.157 15.068 0 14.673 0 C 14.278 0 13.899 0.157 13.619 0.436 C 13.34 0.716 13.183 1.095 13.183 1.49 L 13.183 7.336 C 13.182 7.713 13.324 8.075 13.58 8.351 C 13.835 8.627 14.186 8.796 14.561 8.824 L 14.562 8.825 Z M 9.374 15.178 C 9.073 15.153 8.771 15.221 8.51 15.374 L 3.444 18.293 C 3.102 18.492 2.853 18.818 2.751 19.201 C 2.649 19.583 2.702 19.99 2.9 20.333 C 3.098 20.675 3.423 20.924 3.805 21.026 C 4.186 21.128 4.592 21.074 4.934 20.877 L 7.771 19.24 L 7.771 22.511 C 7.771 22.906 7.928 23.285 8.208 23.565 C 8.487 23.844 8.866 24.001 9.261 24.001 C 9.656 24.001 10.036 23.844 10.315 23.565 C 10.594 23.285 10.751 22.906 10.751 22.511 L 10.751 16.665 C 10.752 16.289 10.611 15.926 10.355 15.65 C 10.1 15.374 9.749 15.206 9.374 15.178 Z M 8.001 12.44 C 8.051 12.281 8.071 12.117 8.068 11.955 C 8.061 11.701 7.988 11.452 7.857 11.234 C 7.726 11.015 7.541 10.834 7.32 10.707 L 2.26 7.786 C 2.09 7.688 1.903 7.625 1.709 7.599 C 1.515 7.574 1.318 7.587 1.129 7.638 C 0.94 7.688 0.763 7.776 0.608 7.895 C 0.452 8.015 0.322 8.163 0.225 8.333 C 0.127 8.502 0.063 8.689 0.037 8.883 C 0.011 9.077 0.024 9.274 0.075 9.463 C 0.125 9.652 0.213 9.83 0.332 9.985 C 0.452 10.14 0.6 10.27 0.77 10.367 L 3.599 12.003 L 0.768 13.634 C 0.595 13.73 0.443 13.859 0.32 14.014 C 0.198 14.17 0.107 14.348 0.054 14.539 C 0.001 14.73 -0.013 14.929 0.012 15.125 C 0.037 15.322 0.101 15.511 0.2 15.683 C 0.298 15.854 0.431 16.004 0.588 16.124 C 0.746 16.244 0.925 16.331 1.117 16.381 C 1.309 16.43 1.508 16.441 1.704 16.413 C 1.9 16.384 2.088 16.317 2.258 16.215 L 7.319 13.291 C 7.662 13.095 7.894 12.787 8.001 12.44 Z" fill="currentColor" fill-rule="evenodd" transform="matrix(1 0 0 1 -0.023 -0.002)"/></svg>